<svg xmlns="http://www.w3.org/2000/svg" width="21" height="24" viewBox="0 0 21 24"><g><g><g><path fill="#e2574c" d="M1.523 0H14.25l6.745 6.713v15.734c0 .827-.67 1.496-1.498 1.496H1.523c-.826 0-1.497-.67-1.497-1.496V1.497C.026.67.696 0 1.523 0z"/></g><g><path fill="#b53629" d="M20.974 6.734h-5.221c-.827 0-1.498-.67-1.498-1.497V.015z"/></g><g><path fill="#fff" d="M7.353 11.97c0-.375-.234-.662-.603-.662h-.597v1.324h.597c.369 0 .602-.288.603-.662zm.912.005c0 .912-.661 1.48-1.462 1.48h-.65v1.024c0 .313-.187.486-.439.486-.251 0-.438-.173-.438-.486V10.97c0-.293.163-.486.456-.486h1.035c.86 0 1.498.599 1.498 1.491zm3.518.763c0-.804-.378-1.387-1.248-1.387H9.96v2.736h.638c.813 0 1.185-.596 1.185-1.349zm.984.043c0 1.318-.858 2.172-2.156 2.172H9.514c-.208 0-.498-.113-.498-.471v-3.515c0-.288.202-.483.486-.483h1.045c1.412 0 2.22.904 2.22 2.297zm1.584-1.436v1.309h.864c.268 0 .402.212.402.425 0 .218-.134.437-.402.437h-.864v.963c0 .313-.179.486-.419.486s-.42-.173-.42-.486V10.97c0-.255.157-.486.436-.486h1.429c.246 0 .374.212.374.431 0 .212-.123.43-.374.43z"/></g></g></g></svg>