<svg xmlns="http://www.w3.org/2000/svg" width="128" height="128" viewBox="0 0 128 128"><g><g><path fill="#fff" d="M64.904 1.6C29.594 1.6 1.6 29.593 1.6 63.096c0 35.311 27.993 63.304 63.304 63.304 33.505 0 61.496-27.993 61.496-63.304C126.4 29.593 98.409 1.6 64.904 1.6z"/><path fill="none" stroke="#232f61" stroke-miterlimit="50" stroke-width="2.4" d="M64.904 1.6C29.594 1.6 1.6 29.593 1.6 63.096c0 35.311 27.993 63.304 63.304 63.304 33.505 0 61.496-27.993 61.496-63.304C126.4 29.593 98.409 1.6 64.904 1.6z"/></g><g><g><path fill="#232f61" d="M83.2 30.4h2.4v67.2h-2.4z"/></g><g><path fill="#232f61" d="M100 30.4h2.4v67.2H100z"/></g><g><path fill="none" stroke="#ea4740" stroke-miterlimit="50" stroke-width="2.4" d="M89.2 31.6v0l5.006 5.006a4.8 4.8 0 0 1 0 6.788l-2.812 2.812a4.8 4.8 0 0 0 0 6.788l2.812 2.812a4.8 4.8 0 0 1 0 6.788l-2.812 2.812a4.8 4.8 0 0 0 0 6.788l2.812 2.812a4.8 4.8 0 0 1 0 6.788l-2.812 2.812a4.8 4.8 0 0 0 0 6.788L96.4 96.4v0"/></g></g><g><g><path fill="none" stroke="#232f61" stroke-miterlimit="50" stroke-width="2.4" d="M23.486 68.8c.41-1.551.628-3.18.628-4.858 0-1.637-.207-3.226-.598-4.742"/></g><g><path fill="none" stroke="#232f61" stroke-miterlimit="50" stroke-width="2.4" d="M29.2 78.4c2.286-4.265 3.6-9.25 3.6-14.578 0-5.18-1.242-10.037-3.412-14.222"/></g><g><path fill="none" stroke="#232f61" stroke-miterlimit="50" stroke-width="2.4" d="M35.267 88A38.44 38.44 0 0 0 43.6 64.042 38.44 38.44 0 0 0 35.2 40"/></g></g><g><g><path fill="none" stroke="#ced4da" stroke-miterlimit="50" stroke-width="2.4" d="M56.8 76v0L76 56.8v0L53.2 34v0"/></g><g><path fill="#ced4da" d="M53.2 41.2h-2.4v-9.6h9.6V34h-7.2z"/></g><g><g><path fill="#495057" d="M59.2 66.4h-2.4v-9.6h9.6v2.4h-7.2z"/></g></g><g><path fill="none" stroke="#232f61" stroke-miterlimit="50" stroke-width="2.4" d="M56.8 96.4v0L76 76v0L58 58v0"/></g></g></g></svg>