<svg xmlns="http://www.w3.org/2000/svg" width="128" height="128" viewBox="0 0 128 128"><g><g><path fill="#fff" d="M64.904 1.6C29.594 1.6 1.6 29.593 1.6 63.096c0 35.311 27.993 63.304 63.304 63.304 33.505 0 61.496-27.993 61.496-63.304C126.4 29.593 98.409 1.6 64.904 1.6z"/><path fill="none" stroke="#232f61" stroke-miterlimit="50" stroke-width="2.4" d="M64.904 1.6C29.594 1.6 1.6 29.593 1.6 63.096c0 35.311 27.993 63.304 63.304 63.304 33.505 0 61.496-27.993 61.496-63.304C126.4 29.593 98.409 1.6 64.904 1.6z"/></g><g><g transform="scale(-1 1) rotate(30 0 -152.093)"><g><path fill="none" stroke="#232f61" stroke-miterlimit="50" stroke-width="2.8" d="M55.24 27.184v0l15.698 19.682c4.34 5.442 6.507 16.775 6.502 23.907-.005 7.115-2.172 11.429-6.502 16.858-4.353 5.457-10.063 6.775-15.768 6.752-5.658-.022-11.31-1.34-15.628-6.752-4.32-5.418-6.488-9.713-6.502-16.813-.014-7.147 2.153-18.499 6.502-23.952z"/></g><g><path fill="none" stroke="#232f61" stroke-miterlimit="50" stroke-width="2.8" d="M56.02 95.5v-66"/></g><g><path fill="none" stroke="#ea4740" stroke-miterlimit="50" stroke-width="2.8" d="M55.732 91.396l9.6-9.721"/></g><g><path fill="none" stroke="#232f61" stroke-miterlimit="50" stroke-width="2.8" d="M55.78 65.404l8.4-8.4"/></g><g><path fill="none" stroke="#ea4740" stroke-miterlimit="50" stroke-width="2.8" d="M55.864 75.004l-13.2-12.467"/></g><g><path fill="none" stroke="#232f61" stroke-miterlimit="50" stroke-width="2.8" d="M54.803 57.172l-6.043-6.043"/></g><g><path fill="none" stroke="#ea4740" stroke-miterlimit="50" stroke-width="2.8" d="M55.564 80.956l6.043-6.043"/></g><g><path fill="none" stroke="#232f61" stroke-miterlimit="50" stroke-width="2.8" d="M55.72 47.62l6.043-6.043"/></g><g><path fill="none" stroke="#ea4740" stroke-miterlimit="50" stroke-width="2.8" d="M55.385 84.724l-9.049-7.837"/></g></g><g transform="rotate(-330 71.5 68.5)"><g><path fill="#fff" d="M74.968 33.16l15.698 19.682c4.34 5.442 6.507 16.775 6.502 23.907-.005 7.115-2.172 11.429-6.502 16.858-4.353 5.457-10.063 6.775-15.768 6.752-5.658-.022-11.31-1.34-15.628-6.752-4.32-5.418-6.488-9.713-6.502-16.813-.014-7.147 2.154-18.499 6.502-23.952z"/><path fill="none" stroke="#ea4740" stroke-miterlimit="50" stroke-width="2.8" d="M74.968 33.16v0l15.698 19.682c4.34 5.442 6.507 16.775 6.502 23.907-.005 7.115-2.172 11.429-6.502 16.858-4.353 5.457-10.063 6.775-15.768 6.752-5.658-.022-11.31-1.34-15.628-6.752-4.32-5.418-6.488-9.713-6.502-16.813-.014-7.147 2.154-18.499 6.502-23.952z"/></g><g><path fill="none" stroke="#ea4740" stroke-miterlimit="50" stroke-width="2.8" d="M75.472 100.252v-66"/></g><g><path fill="none" stroke="#ea4740" stroke-miterlimit="50" stroke-width="2.8" d="M75.244 96.1l9.6-9.721"/></g><g><path fill="none" stroke="#ea4740" stroke-miterlimit="50" stroke-width="2.8" d="M75.436 70.036l8.4-8.4"/></g><g><path fill="none" stroke="#ea4740" stroke-miterlimit="50" stroke-width="2.8" d="M76.012 79.36l-13.2-12.467"/></g><g><path fill="none" stroke="#ea4740" stroke-miterlimit="50" stroke-width="2.8" d="M74.087 62.02l-6.043-6.043"/></g><g><path fill="none" stroke="#ea4740" stroke-miterlimit="50" stroke-width="2.8" d="M74.848 85.804l6.043-6.043"/></g><g><path fill="none" stroke="#ea4740" stroke-miterlimit="50" stroke-width="2.8" d="M75.592 53.5l6.043-6.043"/></g><g><path fill="none" stroke="#ea4740" stroke-miterlimit="50" stroke-width="2.8" d="M74.897 89.428l-9.049-7.837"/></g></g></g></g></svg>