<svg xmlns="http://www.w3.org/2000/svg" width="128" height="128" viewBox="0 0 128 128"><g><g><path fill="#fff" d="M64.904 1.6C29.594 1.6 1.6 29.593 1.6 63.096c0 35.311 27.993 63.304 63.304 63.304 33.505 0 61.496-27.993 61.496-63.304C126.4 29.593 98.409 1.6 64.904 1.6z"/><path fill="none" stroke="#232f61" stroke-miterlimit="50" stroke-width="2.4" d="M64.904 1.6C29.594 1.6 1.6 29.593 1.6 63.096c0 35.311 27.993 63.304 63.304 63.304 33.505 0 61.496-27.993 61.496-63.304C126.4 29.593 98.409 1.6 64.904 1.6z"/></g><g><g><path fill="none" stroke="#ced4da" stroke-miterlimit="50" stroke-width="2.4" d="M35.2 80.2a3 3 0 0 1 3-3h51.6a3 3 0 0 1 3 3v4.2H35.2v0z"/></g><g><path fill="none" stroke="#232f61" stroke-miterlimit="50" stroke-width="2.4" d="M35.2 55.6v0h7.2v28.8h-7.2v0z"/></g><g><path fill="none" stroke="#232f61" stroke-miterlimit="50" stroke-width="2.4" d="M49.6 55.6v0h7.2v28.8h-7.2v0z"/></g><g><path fill="none" stroke="#232f61" stroke-miterlimit="50" stroke-width="2.4" d="M64 55.6v0h7.2v28.8H64v0z"/></g><g><path fill="none" stroke="#232f61" stroke-miterlimit="50" stroke-width="2.4" d="M78.4 55.6v0h7.2v28.8h-7.2v0z"/></g><g><path fill="none" stroke="#212529" stroke-miterlimit="50" stroke-width="2.4" d="M35.2 84.4v0h57.6v7.2H35.2v0z"/></g><g><path fill="none" stroke="#232f61" stroke-miterlimit="50" stroke-width="2.4" d="M35.2 101.2v0-9.6 0h57.6v9.6"/></g><g><path fill="none" stroke="#232f61" stroke-miterlimit="50" stroke-width="2.4" d="M35.2 54.4v0V34a7.2 7.2 0 0 1 7.2-7.2h7.2a7.2 7.2 0 0 1 7.2 7.2v10.8"/></g><g><path fill="none" stroke="#232f61" stroke-miterlimit="50" stroke-width="2.4" d="M42.4 55.6v0h7.2v28.8h-7.2v0z"/></g><g><path fill="none" stroke="#232f61" stroke-miterlimit="50" stroke-width="2.4" d="M56.8 55.6v0H64v28.8h-7.2v0z"/></g><g><path fill="none" stroke="#232f61" stroke-miterlimit="50" stroke-width="2.4" d="M71.2 55.6v0h7.2v28.8h-7.2v0z"/></g><g><path fill="none" stroke="#232f61" stroke-miterlimit="50" stroke-width="2.4" d="M85.6 55.6v0h7.2v28.8h-7.2v0z"/></g><g><path fill="none" stroke="#232f61" stroke-miterlimit="50" stroke-width="2.4" d="M48.4 43.6v0-4.4a4 4 0 0 1 4-4h8.8a4 4 0 0 1 4 4v4.4"/></g><g><path fill="#fff" d="M65.2 47.2a2.4 2.4 0 1 0 0-4.8 2.4 2.4 0 0 0 0 4.8z"/><path fill="none" stroke="#ea4740" stroke-miterlimit="50" stroke-width="2.8" d="M65.2 47.2a2.4 2.4 0 1 0 0-4.8 2.4 2.4 0 0 0 0 4.8z"/></g><g><path fill="none" stroke="#232f61" stroke-miterlimit="50" stroke-width="2.4" d="M56.8 48.4a2.4 2.4 0 1 0 0-4.8 2.4 2.4 0 0 0 0 4.8z"/></g><g><path fill="#fff" d="M48.4 47.2a2.4 2.4 0 1 0 0-4.8 2.4 2.4 0 0 0 0 4.8z"/><path fill="none" stroke="#ea4740" stroke-miterlimit="50" stroke-width="2.8" d="M48.4 47.2a2.4 2.4 0 1 0 0-4.8 2.4 2.4 0 0 0 0 4.8z"/></g></g></g></svg>