<svg xmlns="http://www.w3.org/2000/svg" width="128" height="128" viewBox="0 0 128 128"><g><g><path fill="#fff" d="M64.904 1.6C29.594 1.6 1.6 29.593 1.6 63.096c0 35.311 27.993 63.304 63.304 63.304 33.505 0 61.496-27.993 61.496-63.304C126.4 29.593 98.409 1.6 64.904 1.6z"/><path fill="none" stroke="#232f61" stroke-miterlimit="50" stroke-width="2.4" d="M64.904 1.6C29.594 1.6 1.6 29.593 1.6 63.096c0 35.311 27.993 63.304 63.304 63.304 33.505 0 61.496-27.993 61.496-63.304C126.4 29.593 98.409 1.6 64.904 1.6z"/></g><g><path fill="none" stroke="#ced4da" stroke-miterlimit="50" stroke-width="2.4" d="M35.2 25.6v0h57.6v76.8H35.2v0z"/></g><g><path fill="none" stroke="#232f61" stroke-miterlimit="50" stroke-width="2.4" d="M40 30.4v0h48v67.2H40v0z"/></g><g><path fill="#ced4da" d="M46 43.6h9.6v9.6H46z"/></g><g><path fill="#ced4da" d="M46 60.4h9.6V70H46z"/></g><g><path fill="#ced4da" d="M46 77.2h9.6v9.6H46z"/></g><g><path fill="#ced4da" d="M60.4 44.8H82v2.4H60.4z"/></g><g><path fill="#ced4da" d="M60.4 61.6H82V64H60.4z"/></g><g><path fill="#ced4da" d="M60.4 78.4H82v2.4H60.4z"/></g><g><path fill="#ced4da" d="M60.4 49.6h16.8V52H60.4z"/></g><g><path fill="#ced4da" d="M60.4 66.4h16.8v2.4H60.4z"/></g><g><path fill="#ced4da" d="M60.4 83.2h16.8v2.4H60.4z"/></g><g><path fill="#ced4da" d="M64 18.4a3.6 3.6 0 0 1 3.6 3.6h2a4 4 0 0 1 4 4v3.2h.4a2 2 0 0 1 2 2V34H52v-2.8a2 2 0 0 1 2-2h.4V26a4 4 0 0 1 4-4h2a3.6 3.6 0 0 1 3.6-3.6z"/></g><g><path fill="#fff" d="M92.8 80.8c9.278 0 16.8-7.522 16.8-16.8s-7.522-16.8-16.8-16.8S76 54.722 76 64s7.522 16.8 16.8 16.8z"/><path fill="none" stroke="#ea4740" stroke-miterlimit="50" stroke-width="2.8" d="M92.8 80.8c9.278 0 16.8-7.522 16.8-16.8s-7.522-16.8-16.8-16.8S76 54.722 76 64s7.522 16.8 16.8 16.8z"/></g><g><path fill="#fff" d="M88 64l3.6 3.6 9.6-9.6"/><path fill="none" stroke="#ea4740" stroke-miterlimit="50" stroke-width="2.8" d="M88 64v0l3.6 3.6v0l9.6-9.6v0"/></g></g></svg>