<svg xmlns="http://www.w3.org/2000/svg" width="128" height="128" viewBox="0 0 128 128"><g><g><path fill="#fff" d="M64.904 1.6C29.594 1.6 1.6 29.593 1.6 63.096c0 35.311 27.993 63.304 63.304 63.304 33.505 0 61.496-27.993 61.496-63.304C126.4 29.593 98.409 1.6 64.904 1.6z"/><path fill="none" stroke="#232f61" stroke-miterlimit="50" stroke-width="2.4" d="M64.904 1.6C29.594 1.6 1.6 29.593 1.6 63.096c0 35.311 27.993 63.304 63.304 63.304 33.505 0 61.496-27.993 61.496-63.304C126.4 29.593 98.409 1.6 64.904 1.6z"/></g><g><path fill="none" stroke="#232f61" stroke-miterlimit="50" stroke-width="2.4" d="M64.6 36.4a6.6 6.6 0 1 0 0-13.2 6.6 6.6 0 0 0 0 13.2z"/></g><g><path fill="#ced4da" d="M59.185 101.526S63.82 76.78 64 74.8c.18-1.98-3.694-3.405-5.674-3.585-1.98-.18-2.531 1.28-2.711 3.26l-3.6 26.399a3.6 3.6 0 1 0 7.17.652z"/><path fill="none" stroke="#232f61" stroke-miterlimit="50" stroke-width="2.4" d="M59.185 101.526S63.82 76.78 64 74.8c.18-1.98-3.694-3.405-5.674-3.585-1.98-.18-2.531 1.28-2.711 3.26l-3.6 26.399a3.6 3.6 0 1 0 7.17.652z"/></g><g><path fill="#ced4da" d="M75.4 101.2V74.8a3.6 3.6 0 0 0-3.6-3.6c-1.988 0-5.4 1.612-5.4 3.6s1.8 26.4 1.8 26.4a3.6 3.6 0 0 0 7.2 0z"/><path fill="none" stroke="#232f61" stroke-miterlimit="50" stroke-width="2.4" d="M75.4 101.2V74.8a3.6 3.6 0 0 0-3.6-3.6c-1.988 0-5.4 1.612-5.4 3.6s1.8 26.4 1.8 26.4a3.6 3.6 0 0 0 7.2 0z"/></g><g transform="rotate(-15 63.5 70.5)"><path fill="#fff" d="M93.649 79.6l-39.6-38.4L34 61.876l39.6 38.4z"/><path fill="none" stroke="#ea4740" stroke-miterlimit="50" stroke-width="2.4" d="M93.649 79.6v0l-39.6-38.4v0L34 61.876v0l39.6 38.4v0z"/></g><g transform="rotate(-15 62.5 65.5)"><path fill="#fff" d="M92.449 74.8l-39.6-38.4L32.8 57.076l39.6 38.4z"/><path fill="none" stroke="#ea4740" stroke-miterlimit="50" stroke-width="2.4" d="M92.449 74.8v0l-39.6-38.4v0L32.8 57.076v0l39.6 38.4v0z"/></g><g><path fill="#fff" d="M71.196 52l4.535 2.4-6.994 7.068a3.6 3.6 0 0 0 5.118 5.064L85.86 54.4 72.798 41.2H59.896a3.6 3.6 0 0 0-3.6 3.6"/><path fill="none" stroke="#232f61" stroke-miterlimit="50" stroke-width="2.4" d="M71.196 52v0l4.535 2.4v0l-6.994 7.068a3.6 3.6 0 0 0 5.118 5.064L85.86 54.4v0L72.798 41.2v0H59.896a3.6 3.6 0 0 0-3.6 3.6"/></g></g></svg>