<svg xmlns="http://www.w3.org/2000/svg" width="128" height="128" viewBox="0 0 128 128"><g><g><path fill="#fff" d="M64.904 1.6C29.594 1.6 1.6 29.593 1.6 63.096c0 35.311 27.993 63.304 63.304 63.304 33.505 0 61.496-27.993 61.496-63.304C126.4 29.593 98.409 1.6 64.904 1.6z"/><path fill="none" stroke="#232f61" stroke-miterlimit="50" stroke-width="2.4" d="M64.904 1.6C29.594 1.6 1.6 29.593 1.6 63.096c0 35.311 27.993 63.304 63.304 63.304 33.505 0 61.496-27.993 61.496-63.304C126.4 29.593 98.409 1.6 64.904 1.6z"/></g><g><g><g><path fill="none" stroke="#232f61" stroke-miterlimit="50" stroke-width="2.4" d="M64 66.4v24.835c0 4.84 2.686 7.565 6 7.565s6-2.724 6-7.565"/></g><g><path fill="none" stroke="#212529" stroke-miterlimit="50" stroke-width="2.4" d="M64 43.6v-2.4"/></g><g><g><path fill="#fff" d="M88 68.8c0-13.255-10.745-24-24-24s-24 10.745-24 24"/><path fill="none" stroke="#ea4740" stroke-miterlimit="50" stroke-width="2.8" d="M88 68.8c0-13.255-10.745-24-24-24s-24 10.745-24 24"/></g><g><path fill="#fff" d="M64 68.8a6 6 0 0 0-12 0m36 0a6 6 0 0 0-12 0m0 0a6 6 0 0 0-12 0m-12 0a6 6 0 0 0-12 0"/><path fill="none" stroke="#ea4740" stroke-miterlimit="50" stroke-width="2.8" d="M64 68.8a6 6 0 0 0-12 0m36 0a6 6 0 0 0-12 0m0 0a6 6 0 0 0-12 0m-12 0a6 6 0 0 0-12 0"/></g></g></g><g><path fill="#ced4da" d="M48.4 38.8l4.243 4.218a5.94 5.94 0 0 1 0 8.435 6.025 6.025 0 0 1-8.486 0 5.94 5.94 0 0 1 0-8.435z"/><path fill="none" stroke="#232f61" stroke-miterlimit="50" stroke-width="2.4" d="M48.4 38.8v0l4.243 4.218a5.94 5.94 0 0 1 0 8.435 6.025 6.025 0 0 1-8.486 0 5.94 5.94 0 0 1 0-8.435z"/></g><g><path fill="#ced4da" d="M56.8 29.2l2.546 2.46a3.398 3.398 0 0 1 0 4.92c-1.406 1.36-3.686 1.36-5.092 0a3.398 3.398 0 0 1 0-4.92z"/><path fill="none" stroke="#232f61" stroke-miterlimit="50" stroke-width="2.4" d="M56.8 29.2v0l2.546 2.46a3.398 3.398 0 0 1 0 4.92c-1.406 1.36-3.686 1.36-5.092 0a3.398 3.398 0 0 1 0-4.92z"/></g></g></g></svg>