<svg xmlns="http://www.w3.org/2000/svg" width="75" height="74" viewBox="0 0 75 74"><g><g><path fill="#fff" d="M37.73 73c19.882 0 36-16.118 36-36s-16.118-36-36-36-36 16.118-36 36 16.118 36 36 36z"/><path fill="none" stroke="#ea4740" stroke-miterlimit="50" stroke-width="2" d="M37.73 73c19.882 0 36-16.118 36-36s-16.118-36-36-36-36 16.118-36 36 16.118 36 36 36z"/></g><g><g/><g/><g><g><path fill="#232f61" d="M35.39 45.524c.873-.665 1.777-1.001 2.692-1.001 1.113 0 2.046.498 2.604.887a4.503 4.503 0 0 1-2.956 1.104c-.037 0-.074-.002-.11-.003-1.28-.096-1.927-.613-2.23-.987zm-2.182-3.528a4.525 4.525 0 0 1 4.522-4.518 4.525 4.525 0 0 1 4.522 4.518c0 .829-.226 1.606-.618 2.274-.724-.525-1.983-1.225-3.552-1.225-1.398 0-2.739.549-3.99 1.63a4.492 4.492 0 0 1-.884-2.68zM37.73 36c-3.308 0-6 2.69-6 5.996a6.005 6.005 0 0 0 5.868 5.994c.105.006.208.01.311.01 2.732 0 4.387-2.11 4.456-2.2l.01-.014a5.965 5.965 0 0 0 1.355-3.79 6.005 6.005 0 0 0-6-5.996z"/></g><g><path fill="#232f61" d="M32.329 33.041l1.266.705a.813.813 0 0 0 1.05-.222.818.818 0 0 0-.074-1.07 3.677 3.677 0 0 0-1.649-.955l-2.507-1.395a.817.817 0 1 0-.795 1.43l.546.303a3.477 3.477 0 0 0-.726.556.819.819 0 0 0 1.156 1.157c.456-.456 1.116-.622 1.733-.509z"/></g><g><path fill="#232f61" d="M45.887 30.42a.817.817 0 0 0-1.112-.316l-2.506 1.395a3.676 3.676 0 0 0-1.65.954.818.818 0 0 0 .976 1.293l1.267-.705c.623-.116 1.277.053 1.733.509a.818.818 0 1 0 1.156-1.157 3.465 3.465 0 0 0-.726-.556l.545-.304a.818.818 0 0 0 .317-1.113z"/></g><g><path fill="#232f61" d="M37.705 52.321c-8.458 0-15.34-6.882-15.34-15.343 0-8.46 6.882-15.343 15.34-15.343s15.339 6.883 15.339 15.343-6.88 15.343-15.34 15.343zM37.71 20c-9.363 0-16.98 7.619-16.98 16.983 0 9.365 7.617 16.984 16.98 16.984 9.362 0 16.98-7.619 16.98-16.984C54.69 27.62 47.071 20 37.71 20z"/></g></g></g><g transform="rotate(-45 38 36.5)"><path fill="#ea4740" d="M1 37.58l73.096-4.89v2L1 39.58z"/></g></g></svg>