<svg xmlns="http://www.w3.org/2000/svg" width="75" height="74" viewBox="0 0 75 74"><g><g><path fill="#fff" d="M37.73 73c19.882 0 36-16.118 36-36s-16.118-36-36-36-36 16.118-36 36 16.118 36 36 36z"/><path fill="none" stroke="#ea4740" stroke-miterlimit="50" stroke-width="2" d="M37.73 73c19.882 0 36-16.118 36-36s-16.118-36-36-36-36 16.118-36 36 16.118 36 36 36z"/></g><g><g/><g/><g><path fill="none" stroke="#232f61" stroke-miterlimit="50" stroke-width="2" d="M18.73 32a2 2 0 0 1 2-2h34a2 2 0 0 1 2 2v16h-3a3 3 0 0 0-6 0h-20a3 3 0 0 0-6 0h-3z"/></g><g><path fill="none" stroke="#232f61" stroke-miterlimit="50" stroke-width="2" d="M22.73 34v0h19v6h-19v0z"/></g><g><path fill="none" stroke="#232f61" stroke-miterlimit="50" stroke-width="2" d="M35.73 34v0h6v14h-6v0z"/></g><g><path fill="none" stroke="#232f61" stroke-miterlimit="50" stroke-width="2" d="M30.73 27v0h14v3h-14v0z"/></g><g><path fill="none" stroke="#232f61" stroke-miterlimit="50" stroke-width="2" d="M45.73 34v0h7v6h-7v0z"/></g><g><path fill="none" stroke="#232f61" stroke-miterlimit="50" stroke-width="2" d="M24.73 51a3 3 0 1 0 0-6 3 3 0 0 0 0 6z"/></g><g><path fill="none" stroke="#232f61" stroke-miterlimit="50" stroke-width="2" d="M50.73 51a3 3 0 1 0 0-6 3 3 0 0 0 0 6z"/></g><g><path fill="none" stroke="#232f61" stroke-miterlimit="50" stroke-width="2" d="M37.73 27l-20-6"/></g></g><g transform="rotate(-45 38 36.5)"><path fill="#ea4740" d="M1 37.58l73.096-4.89v2L1 39.58z"/></g></g></svg>