<svg xmlns="http://www.w3.org/2000/svg" width="75" height="74" viewBox="0 0 75 74"><g><g><path fill="#fff" d="M37.73 73c19.882 0 36-16.118 36-36s-16.118-36-36-36-36 16.118-36 36 16.118 36 36 36z"/><path fill="none" stroke="#ea4740" stroke-miterlimit="50" stroke-width="2" d="M37.73 73c19.882 0 36-16.118 36-36s-16.118-36-36-36-36 16.118-36 36 16.118 36 36 36z"/></g><g><g/><g/><g><path fill="none" stroke="#232f61" stroke-miterlimit="50" stroke-width="2" d="M20.73 31v0h4v12h-4v0z"/></g><g><path fill="none" stroke="#232f61" stroke-miterlimit="50" stroke-width="2" d="M24.73 31.857v0l9-6.857v24l-9-6.857v0z"/></g><g><path fill="none" stroke="#232f61" stroke-miterlimit="50" stroke-width="2" d="M38.968 41c.342-1.292.524-2.65.524-4.048A15.81 15.81 0 0 0 38.993 33"/></g><g><path fill="none" stroke="#232f61" stroke-miterlimit="50" stroke-width="2" d="M41.73 49c2.54-3.554 4-7.709 4-12.148 0-4.317-1.38-8.364-3.791-11.852"/></g><g><path fill="none" stroke="#232f61" stroke-miterlimit="50" stroke-width="2" d="M47.786 57a32.033 32.033 0 0 0 6.944-19.965 32.034 32.034 0 0 0-7-20.035"/></g></g><g transform="rotate(-45 38 36.5)"><path fill="#ea4740" d="M1 37.58l73.096-4.89v2L1 39.58z"/></g></g></svg>