<svg xmlns="http://www.w3.org/2000/svg" width="120" height="120" viewBox="0 0 120 120"><defs><mask id="duavb" width="2" height="2" x="-1" y="-1"><path fill="#fff" d="M15 9h82v82H15z"/><path d="M56 91c22.644 0 41-18.356 41-41S78.644 9 56 9 15 27.356 15 50s18.356 41 41 41z"/></mask><filter id="duava" width="156" height="162" x="-20" y="-26" filterUnits="userSpaceOnUse"><feOffset dx="4" dy="10" in="SourceGraphic" result="FeOffset2002Out"/><feGaussianBlur in="FeOffset2002Out" result="FeGaussianBlur2003Out" stdDeviation="10 10"/></filter><clipPath id="duavc"><path d="M56 91c22.644 0 41-18.356 41-41S78.644 9 56 9 15 27.356 15 50s18.356 41 41 41z"/></clipPath></defs><g><g><g><g filter="url(#duava)"><path fill="none" d="M56 91c22.644 0 41-18.356 41-41S78.644 9 56 9 15 27.356 15 50s18.356 41 41 41z" mask="url(&quot;#duavb&quot;)"/><path fill-opacity=".12" d="M56 91c22.644 0 41-18.356 41-41S78.644 9 56 9 15 27.356 15 50s18.356 41 41 41z"/></g><path fill="#fff" d="M56 91c22.644 0 41-18.356 41-41S78.644 9 56 9 15 27.356 15 50s18.356 41 41 41z"/><path fill="none" stroke="#adb5bd" stroke-miterlimit="50" d="M56 91c22.644 0 41-18.356 41-41S78.644 9 56 9 15 27.356 15 50s18.356 41 41 41z"/></g><g clip-path="url(#duavc)"><g><g><path fill="#ced4da" d="M28 124.16l50.105 28.838v-94.17L28 30.44z"/></g><g><path fill="#adb5bd" d="M78.11 59.284v93.72l5.895-2.883V56.4z"/></g><g><path fill="#adb5bd" d="M35.66 29L28 31.082 78.105 59.28 84 56.395z"/></g></g></g></g></g></svg>