<svg xmlns="http://www.w3.org/2000/svg" width="96" height="96" viewBox="0 0 96 96"><g><g/><g><path fill="#fff" d="M48.681 1C22.085 1 1 22.084 1 47.319 1 73.916 22.085 95 48.681 95 73.917 95 95 73.916 95 47.319 95 22.084 73.917 1 48.681 1z"/><path fill="none" stroke="#232f61" stroke-miterlimit="50" stroke-width="2" d="M48.681 1C22.085 1 1 22.084 1 47.319 1 73.916 22.085 95 48.681 95 73.917 95 95 73.916 95 47.319 95 22.084 73.917 1 48.681 1z"/></g><g><g><path fill="none" stroke="#232f61" stroke-miterlimit="50" stroke-width="2" d="M65 34v35H31v0-35 0"/></g></g><g><path fill="#212529" d="M32 34h32v2H32z"/></g><g><path fill="#ea4740" d="M32 36h32v4H32z"/></g><g><path fill="none" stroke="#232f61" stroke-miterlimit="50" stroke-width="2" d="M27 36.084v0l18.675-13.339a4 4 0 0 1 4.65 0L69 36.085v0"/></g></g></svg>