<svg xmlns="http://www.w3.org/2000/svg" width="95" height="94" viewBox="0 0 95 94"><defs><clipPath id="5gqta"><path fill="#fff" d="M48.681 0C22.085 0 1 21.084 1 46.319 1 72.916 22.085 94 48.681 94 73.917 94 95 72.916 95 46.319 95 21.084 73.917 0 48.681 0z"/></clipPath></defs><g><g/><g><path fill="#fff" d="M48.681 0C22.085 0 1 21.084 1 46.319 1 72.916 22.085 94 48.681 94 73.917 94 95 72.916 95 46.319 95 21.084 73.917 0 48.681 0z"/><path fill="none" stroke="#232f61" stroke-miterlimit="50" stroke-width="4" d="M48.681 0C22.085 0 1 21.084 1 46.319 1 72.916 22.085 94 48.681 94 73.917 94 95 72.916 95 46.319 95 21.084 73.917 0 48.681 0z" clip-path="url(&quot;#5gqta&quot;)"/></g><g><path fill="#212529" d="M32 36h32v2H32z"/></g><g transform="rotate(-90 48.5 34)"><path fill="#ea4740" d="M46.5 16.5l4 2v30l-4 3z"/></g><g><path fill="none" stroke="#232f61" stroke-linecap="round" stroke-linejoin="round" stroke-miterlimit="50" stroke-width="2" d="M27 37.084v0l18.675-13.339a4 4 0 0 1 4.65 0L69 37.085v0"/></g><g><path fill="none" stroke="#232f61" stroke-linecap="round" stroke-linejoin="round" stroke-miterlimit="50" stroke-width="2" d="M65 35v35H31v0-35 0"/></g></g></svg>