<svg xmlns="http://www.w3.org/2000/svg" width="95" height="94" viewBox="0 0 95 94"><defs><clipPath id="3bkfa"><path fill="#fff" d="M48.681 0C22.085 0 1 21.084 1 46.319 1 72.916 22.085 94 48.681 94 73.917 94 95 72.916 95 46.319 95 21.084 73.917 0 48.681 0z"/></clipPath></defs><g><g/><g><path fill="#fff" d="M48.681 0C22.085 0 1 21.084 1 46.319 1 72.916 22.085 94 48.681 94 73.917 94 95 72.916 95 46.319 95 21.084 73.917 0 48.681 0z"/><path fill="none" stroke="#232f61" stroke-miterlimit="50" stroke-width="4" d="M48.681 0C22.085 0 1 21.084 1 46.319 1 72.916 22.085 94 48.681 94 73.917 94 95 72.916 95 46.319 95 21.084 73.917 0 48.681 0z" clip-path="url(&quot;#3bkfa&quot;)"/></g><g><g><g><path fill="#ea4740" d="M31 41l15.82-11.634a2 2 0 0 1 2.324.012L65 41v-5l-13.514-9.864C50.47 25.4 49.196 24.022 48 24c-1.247-.022-2.418 1.344-3.487 2.098L31 36z"/></g><g><path fill="none" stroke="#232f61" stroke-linecap="round" stroke-linejoin="round" stroke-miterlimit="50" stroke-width="2" d="M65 36v35H31v0-35 0"/></g><g><path fill="none" stroke="#232f61" stroke-linecap="round" stroke-linejoin="round" stroke-miterlimit="50" stroke-width="2" d="M27 38.084v0l18.675-13.339a4 4 0 0 1 4.65 0L69 38.085v0"/></g></g></g></g></svg>