<svg xmlns="http://www.w3.org/2000/svg" width="71" height="38" viewBox="0 0 71 38"><g><g><g><path fill="#fff" d="M53.679 18.216c.578 1.192 1.257 1.847 1.257 1.847h2.079c.101-.159.169-.514-.278-.674-.161-.058-.993-.44-1.088-1.785-.038-.486-.2-1.526-.225-2.315-.804 1.038-1.583 2.25-1.745 2.927"/></g><g><path fill="#fff" d="M26.003 17.076c.003 1.247 1.22 2.987 1.22 2.987h3.299l.072-.1s.569-.737-.338-1.007c-.273-.056-.735-.691-.347-2.84.04-.215.147-.682.235-1.03-1.572.402-2.994 1.183-4.142 1.99"/></g><g><path fill="#fff" d="M38.252 16.65c1.113 1.921 2.851 3.414 2.851 3.414h3.782c.155-.313.345-.975-.629-1.28-.225-.066-1.049-.773-1.22-3.226-.074-.998.186-2.538.477-3.614a66.832 66.832 0 0 0-5.262 4.706"/></g><g><path fill="#fff" d="M58.971 9.552c.031.14-.101.286-.284.324-.184.034-.352-.053-.38-.195-.026-.143.1-.29.282-.324.184-.036.354.048.382.195zm-3.1.19c-.04.105-.293.19-.467.184l.18-.707c-6.68 1.776-8.743 2.954-9.83 4.605-.684 1.028-.703 2.824 0 4.605.045.118.089.31.087.432-.013.555-.296.977-.335 1.066-.066.144.075.137.075.137h2.968c.158-.222.186-.63-.411-.793-.071-.02-.066-.05-.044-.114.063-.217.445-.8.783-1.078.065-.054.913-.094 1.378-.346.229 1.15 1.439 2.33 1.439 2.33h2.09c.152-.262.208-.626-.313-.768-1.833-1.03 1.94-5.302 3.334-6.407.259-.203.618-.74 1.445-.911 1.372-.29 2.945-.663 3.16-1.28.15-.411.264-.788.112-1.197-.02-.044-.047-.063-.162-.085-.325-.056-1.14-.017-1.585-.135-.079-.019-.208-.056-.392-.263-.247-.268-1.49-.16-1.906-.15-.103-.152-.276-.372-.6-.372-.373 0-.63.304-.739.57z"/></g><g><path fill="#fff" d="M52.317 1.24c-.025.2-.23.34-.457.313-.23-.026-.395-.217-.37-.416.025-.2.231-.342.456-.313.229.029.393.217.37.416M21.32 8.802c.02 1.258.452 1.057.359 2.65-.05.966-2.682 4.711-2.708 5.628-.056 1.882.763 2.81.938 2.983h3.857c.23-.358.223-.98-.64-1.209-.135-.036-.215-.136-.012-.336 1.352-1.358 4.932-4.484 9.209-4.484.596 0 .916.092.856.229-.076.153-.716 1.709-.95 2.506-.622 2.085.394 3.294.394 3.294h3.604l.078-.143c.129-.23.337-.859-.612-1.107-.036-.087-.063-.143-.083-.21-.076-.203-.012-.27.074-.369C39.931 13.55 47.226 7.303 53.13 5.264c1.721-.595 2.466-.974 2.869-1.226.144-.093.262-.245.252-.4a6.3 6.3 0 0 0-.027-.352c-.014-.094-.088-.186-.149-.176-.211.045-.616.128-.922.185-.247.04-1.637.198-2.104.008-.15-.063-.18-.25-.058-.27.833-.117 1.793-.28 2.235-.389.458-.113.893-.25 1.213-.485.06-.044.084-.143.095-.22.007-.077.294-.557.125-1.074a3.47 3.47 0 0 0-.173-.376c-.023-.053-.169-.225-.438-.159-.046.01-1.026.094-1.532.135-1.122.08-1.256.057-1.568-.19-.2-.15-.287-.296-1.141-.272-.413.013-1.47.17-1.864.26l-1.767.375a1.402 1.402 0 0 0-1.108-.494c-.498 0-.882.398-1.061.828l-.34.834c-.077.174-.473.281-.58.3l.297-1.09c-1.425.319-2.898.525-6.22.87-3.12.328-10.546-.726-14.196 1.452-4.575 1.384-4.782 4.338-4.736 5.113.034.521.296.72.459.757.23.058.377-.292.507-.43.082-.087.122-.055.122.024"/></g><g><path fill="#ea4740" d="M7.29 38.001c-5.475 0-8.043-1.323-7.098-5.818l1.802-8.55h5.751l-1.807 8.595c-.339 1.605.523 2.119 2.146 2.119 1.7 0 2.813-.531 3.163-2.184l1.792-8.53h5.63l-1.813 8.613c-.93 4.43-4.075 5.755-9.566 5.755"/></g><g><path fill="#ea4740" d="M46.365 37.524h-9.872l.741-3.533h7.623c.894 0 1.39-.215 1.449-.806.056-.514-.267-.835-1.105-.835h-3.368c-2.969 0-4.58-2.071-3.883-4.735.814-3.1 2.974-3.984 5.47-3.984h9.849l-.745 3.533h-7.716c-.961 0-1.252.306-1.303.758-.05.437.286.808.978.808h3.578c3.108 0 4.565 1.477 3.854 4.595-.603 2.659-2.334 4.199-5.55 4.199"/></g><g><path fill="#ea4740" d="M65.3 28.266c.147-.71-.105-1.105-.806-1.105h-8.841l.743-3.528h10.622c2.946 0 4.497 1.944 3.828 5.12l-1.845 8.771H57.045c-2.792 0-4.144-2.074-3.706-4.578.394-2.293 2.048-4.216 5.348-4.216h6.515zm-.782 3.72H60.55c-1.004 0-1.515.35-1.595.952-.08.587.303 1.055 1.16 1.055h3.979z"/></g><g><path fill="#ea4740" d="M29.459 27.026c.788 0 1.191.564 1.062 1.432-.123.82-.651 1.44-1.652 1.44h-3.591l.604-2.872h3.577m3.411 5.387c2.018-.655 3.006-2.011 3.346-3.929.437-2.46-.622-4.853-4.15-4.853H20.965L18.04 37.524h5.634l.892-4.236h2.612l1.812 4.236h6.67l-2.79-5.11"/></g></g></g></svg>