<svg xmlns="http://www.w3.org/2000/svg" width="139" height="40" viewBox="0 0 139 40"><g><g><g><path d="M130.336 37.947V34.03h-1.165v-1.917h4.41v1.917h-1.166v3.917zm-5.36-3.017l.072.92v2.097h-2.017v-5.835h2.052l1.793 3.061-.063-1.098v-1.963h2.018v5.835h-2.063zm-6.426 3.017v-5.835h3.89v1.594h-1.838v.558h1.658v1.495h-1.658v.612h1.873v1.576zm-2.778-3.377l-.26 1.135-.655 2.242h-1.254l-.655-2.242-.27-1.135-.089 1.072-.241 2.305h-2.053l.995-5.835h2.15l.826 2.962.833-2.962h2.151l.915 5.835h-2.044l-.25-2.305zm-8.623.144h.502c.293 0 .44-.159.44-.477 0-.324-.159-.486-.475-.486h-.467zm-.01 1.522v1.71h-2.087v-5.834h2.59c.807 0 1.413.166 1.82.5.406.333.61.872.61 1.616 0 .564-.214 1.04-.642 1.427-.427.388-1.017.58-1.77.58zm-5.789-2.287a.917.917 0 0 0-.699.324 1.122 1.122 0 0 0-.295.784c0 .306.098.567.295.783a.917.917 0 0 0 1.398.004c.197-.212.297-.476.297-.787 0-.312-.1-.576-.297-.788a.922.922 0 0 0-.699-.32m0-1.963a3.088 3.088 0 0 1 2.205.891c.281.277.502.604.663.982.162.378.243.771.243 1.18 0 .552-.14 1.062-.417 1.53-.278.468-.658.84-1.138 1.112a3.1 3.1 0 0 1-1.556.41 3.103 3.103 0 0 1-1.555-.41 3.048 3.048 0 0 1-1.137-1.112 2.937 2.937 0 0 1-.417-1.53c0-.409.08-.8.242-1.176a3.09 3.09 0 0 1 1.653-1.643 3.108 3.108 0 0 1 1.214-.234m-7.636 5.96v-5.834h2.088v3.953h2.035v1.882zm-4.544 0v-5.834h3.89v1.594h-1.838v.558h1.659v1.495h-1.659v.612h1.874v1.576zm-3.45-2.331l.296-1.342.645-2.16h2.222l-2.214 5.834h-1.935l-2.205-5.835h2.25l.618 2.125.278 1.378zm-7.251 2.332v-5.835h3.89v1.594H80.52v.558h1.658v1.495H80.52v.612h1.874v1.576zm-3.043-3.778c-.2-.17-.555-.256-1.062-.256v2.26c.477 0 .825-.089 1.04-.265.215-.177.322-.491.322-.942 0-.36-.1-.625-.3-.797zm-3.132 3.778v-5.835h1.694c.656 0 1.226.063 1.707.19.481.125.88.311 1.196.558.317.245.553.549.709.909.155.36.233.783.233 1.27 0 .558-.102 1.049-.305 1.472-.203.423-.602.768-1.197 1.035-.594.267-1.43.4-2.505.4z"/></g><g><path d="M22.101 21.164c2.2 0 4.03 1.84 4.03 4.05 0 2.392-1.83 4.232-4.03 4.232-2.198 0-4.03-1.84-4.03-4.233 0-2.208 1.832-4.049 4.03-4.049zm-4.396 2.761a1.41 1.41 0 0 1-.289-1.415l-.627-.793.183-.184.916.184-.076.192c.273-.244.632-.376.992-.376.183 0 .55 0 .733.183-.915.553-1.466 1.288-1.832 2.209m4.397 5.705c.55 0 .915 0 1.465-.184-.153.614-.56 1.1-1.115 1.244l-.162.971h-.553l-.17-1.023c-.518-.189-.932-.639-.932-1.192.368.184.917.184 1.467.184m4.396-5.705c-.366-.92-.917-1.656-1.832-2.21.183-.182.55-.182.733-.182.32 0 .641.105.9.302l.748-.303.183.37-.446.603a1.41 1.41 0 0 1-.286 1.42m0 2.024c2.748.736 6.228 2.208 9.16 3.679-.734 2.206-1.833 4.045-3.482 5.7-2.747-1.84-5.678-4.23-7.693-6.252.916-.736 1.831-1.84 2.015-3.127M39.5 31.654c4.943 2.758 5.675 4.413 4.394 6.62-.916 1.655-3.661 1.839-7.871-.552-.366-.183-.916-.551-1.282-.735 1.464-1.84 2.746-3.862 3.478-6.069.55.184.916.552 1.281.736m-19.963-2.578c-2.381 2.207-5.862 4.966-8.977 6.988-1.465-1.839-2.747-3.862-3.48-6.069 3.298-1.471 7.328-3.31 10.625-4.23 0 1.288.916 2.392 1.832 3.31m-13.74 1.66c.734 2.392 1.833 4.416 3.481 6.073-.366.184-.916.552-1.282.736-4.03 2.392-6.778 2.209-7.694.552-.916-1.84.184-4.233 4.214-6.625.366-.369.732-.553 1.281-.736M22.102 8.098c-1.283 0-2.382 0-3.48.183V6.993C18.622 2.208 20.27 0 22.285 0c1.832 0 3.48 2.208 3.48 6.993v1.472c-1.282-.367-2.381-.367-3.663-.367m0 .551c1.282 0 2.38.185 3.663.368-.184 3.68-.733 8.83-1.648 12.324-.55-.368-1.283-.551-2.016-.551-.733 0-1.282.183-1.83.367-.734-2.575-1.1-6.07-1.467-9.197 1.1-.367 2.564-.735 3.664-1.103-1.1-.368-2.565-.368-3.664-.368V9.017c.916-.183 2.015-.368 3.297-.368M32.91 35.704s2.015-1.473 2.932-3.13c-.917 2.025-1.833 3.866-1.833 3.866z"/></g><g><path fill="#d9232a" d="M69.703 19.423c1.225 0 1.925-.527 1.925-1.933 0-1.408-.7-2.111-2.1-2.111h-2.1v4.044zm5.25 2.637c-.349.352-.7.528-1.224.88l3.85 6.505h-6.65l-2.976-4.923-.7-1.055.175 2.988.175 2.99h-6.3V10.457h7.875c2.626 0 4.55.527 5.95 1.758 1.226 1.054 1.925 2.813 1.925 5.275 0 1.757-.7 3.34-2.1 4.57zm24.851-11.604h6.65v18.989H99.63l-5.776-9.846.175 2.99v6.856h-6.474V10.456h6.65l5.775 10.022-.175-3.517zm14.7 13.89h6.65v5.099h-12.775V10.456h12.076v5.45h-5.951v2.286h5.076v3.868h-5.076zm-35.526-13.89h6.826v18.989h-6.826zm59.502 0v5.626h-4.726v13.363h-6.825V16.082h-4.725v-5.626zm-94.852 0h16.275v5.626h-4.725v13.363h-6.825V16.082h-4.725z"/></g></g></g></svg>