<svg xmlns="http://www.w3.org/2000/svg" width="25" height="25" viewBox="0 0 25 25"><defs><clipPath id="iqeba"><path fill="#fff" d="M12.5 25C19.404 25 25 19.404 25 12.5S19.404 0 12.5 0 0 5.596 0 12.5 5.596 25 12.5 25z"/></clipPath><clipPath id="iqebb"><path fill="#fff" d="M12.5 0c4.09 0 7.721 1.964 10.002 5-2.28 3.036-5.912 5-10.001 5C8.41 10 4.78 8.036 2.5 5c2.28-3.036 5.911-5 10-5z"/></clipPath><clipPath id="iqebc"><path fill="#fff" d="M12.5 25c-4.089 0-7.72-1.964-10-5 2.28-3.036 5.911-5 10-5 4.09 0 7.721 1.964 10.002 5-2.28 3.036-5.912 5-10.001 5z"/></clipPath><clipPath id="iqebd"><path fill="#fff" d="M12.5 25c3.59 0 6.5-5.596 6.5-12.5S16.09 0 12.5 0 6 5.596 6 12.5 8.91 25 12.5 25z"/></clipPath></defs><g><g><path fill="none" stroke="#ea4740" stroke-miterlimit="50" stroke-width="4" d="M12.5 25C19.404 25 25 19.404 25 12.5S19.404 0 12.5 0 0 5.596 0 12.5 5.596 25 12.5 25z" clip-path="url(&quot;#iqeba&quot;)"/></g><g><path fill="none" stroke="#ea4740" stroke-miterlimit="50" stroke-width="4" d="M12.5 0c4.09 0 7.721 1.964 10.002 5-2.28 3.036-5.912 5-10.001 5C8.41 10 4.78 8.036 2.5 5c2.28-3.036 5.911-5 10-5z" clip-path="url(&quot;#iqebb&quot;)"/></g><g><path fill="none" stroke="#ea4740" stroke-miterlimit="50" stroke-width="4" d="M12.5 25c-4.089 0-7.72-1.964-10-5 2.28-3.036 5.911-5 10-5 4.09 0 7.721 1.964 10.002 5-2.28 3.036-5.912 5-10.001 5z" clip-path="url(&quot;#iqebc&quot;)"/></g><g><path fill="none" stroke="#ea4740" stroke-miterlimit="50" stroke-width="4" d="M12.5 25c3.59 0 6.5-5.596 6.5-12.5S16.09 0 12.5 0 6 5.596 6 12.5 8.91 25 12.5 25z" clip-path="url(&quot;#iqebd&quot;)"/></g></g></svg>