<svg xmlns="http://www.w3.org/2000/svg" width="690" height="690" viewBox="0 0 690 690"><defs><clipPath id="kf0ua"><path fill="#fff" d="M345 483c77.32 0 140-62.68 140-140s-62.68-140-140-140-140 62.68-140 140 62.68 140 140 140z"/></clipPath></defs><g><g><g><path fill="#fcf8f7" d="M345 495c83.947 0 152-68.053 152-152s-68.053-152-152-152-152 68.053-152 152 68.053 152 152 152z"/></g><g><path fill="#fff" d="M345 483c77.32 0 140-62.68 140-140s-62.68-140-140-140-140 62.68-140 140 62.68 140 140 140z"/><path fill="none" stroke="#232f61" stroke-miterlimit="50" stroke-width="8.13" d="M345 483c77.32 0 140-62.68 140-140s-62.68-140-140-140-140 62.68-140 140 62.68 140 140 140z" clip-path="url(&quot;#kf0ua&quot;)"/></g><g><path fill="#162b62" d="M425.797 278.374l-2.583-3.022c-1.412-1.654-2.818-1.887-4.035-.85l-1.035.88c-.7.596-.974 1.32-.87 2.123.085.731.488 1.462 1.082 2.158l2.491 2.922zm-14.004 11.922l5.798-4.933-2.05-2.405c-3.248.49-6.39 1.205-9.427 2.047-1.16.364-1.9-.029-2.41-.625-.813-.955-.909-2.48.127-3.364.258-.218.56-.384.93-.476 2.713-.75 5.465-1.4 8.324-1.87a6.043 6.043 0 0 1-.318-2.943c.236-1.451.996-2.811 2.316-3.935l1.034-.88c3.365-2.867 6.953-2.487 10.392 1.544l4.123 4.833a2.362 2.362 0 0 1-.267 3.351l-15.53 13.225c-.957.815-2.442.698-3.302-.311-.816-.958-.696-2.442.26-3.258zm-23.153-20.468c-.7 1.044-2.182 1.353-3.252.633-1.069-.724-1.307-2.195-.602-3.238l11.566-17.162c.722-1.069 2.154-1.373 3.225-.651a2.354 2.354 0 0 1 .631 3.258l-6.95 10.315 13.668-3.44 1.08-1.606c.723-1.07 2.212-1.334 3.255-.631a2.354 2.354 0 0 1 .63 3.257l-11.567 17.16c-.703 1.04-2.183 1.354-3.252.634-1.043-.705-1.336-2.216-.632-3.26l6.971-10.338-13.688 3.462zm-8.437-23.972l-5.83 17.296c-.402 1.193-1.736 1.856-2.927 1.456-1.225-.414-1.888-1.75-1.485-2.94l5.829-17.3-4.931-1.658c-1.194-.405-1.846-1.662-1.445-2.854a2.279 2.279 0 0 1 2.885-1.43l14.278 4.804c1.194.404 1.803 1.684 1.4 2.875a2.22 2.22 0 0 1-2.843 1.41zm-24.5-8.114a2.323 2.323 0 0 1 2.448-2.202 2.322 2.322 0 0 1 2.201 2.476l-1.24 20.65c-.076 1.254-1.19 2.243-2.48 2.17-1.253-.076-2.242-1.192-2.17-2.445l.483-8.033-8.82-.522-.48 8.037c-.077 1.254-1.191 2.243-2.48 2.167a2.31 2.31 0 0 1-2.168-2.442l1.238-20.65c.082-1.321 1.158-2.281 2.448-2.204a2.326 2.326 0 0 1 2.2 2.478l-.506 8.442 8.82.523zm-30.913 6.535c-.45 2.902-.826 5.82-1.115 8.826l5.603-1.135a111.941 111.941 0 0 0-4.488-7.691m10.602 16.264c-.967.198-2.04-.14-2.565-1.351a54.947 54.947 0 0 0-1.619-3.347l-7.795 1.578a93.38 93.38 0 0 0-.149 3.705c-.049 1.293-.865 2.048-1.798 2.237-1.265.256-2.782-.544-2.768-2.35.18-7.285.962-14.172 2.212-20.976.393-2.16 1.443-2.79 2.445-2.991 1.03-.21 2.313-.052 3.52 1.784a126.245 126.245 0 0 1 10.211 18.456c.752 1.653-.362 2.986-1.694 3.255m-28.571-10.826c-.554-1.202-1.742-2.153-4.307-.971l-3.335 1.533 2.888 6.262 3.737-1.717c2.1-.967 2.24-2.452 1.671-3.685zm-2.961 10.713l2.983 6.48a2.351 2.351 0 0 1-1.149 3.111 2.331 2.331 0 0 1-3.11-1.15l-8.529-18.514a2.347 2.347 0 0 1 1.147-3.109l5.836-2.684c5.343-2.46 8.56.062 9.967 3.115l.725 1.573c1.708 3.703.403 7.37-3.982 9.39zm-21.951 4.011a153.48 153.48 0 0 0 3.053 8.363l4.454-3.574c-2.472-1.72-4.96-3.3-7.507-4.789m16.86 9.616c-.77.615-1.877.807-2.897-.031a56.642 56.642 0 0 0-2.97-2.234l-6.2 4.974a92.962 92.962 0 0 0 1.565 3.364c.549 1.171.171 2.218-.571 2.814-1.01.808-2.721.788-3.535-.825-3.175-6.56-5.631-13.044-7.638-19.671-.64-2.102.006-3.144.802-3.782.82-.66 2.03-1.107 3.94-.025a125.928 125.928 0 0 1 17.52 11.745c1.422 1.122 1.044 2.82-.016 3.67m-32.613-4.842c.783-.94 2.194-1.05 3.137-.27a2.196 2.196 0 0 1 .293 3.107l-5.397 6.511 14.09 11.658c.994.825 1.11 2.282.285 3.278a2.291 2.291 0 0 1-3.255.302l-15.791-13.062c-.943-.782-1.099-2.189-.32-3.131z"/></g><g opacity=".5"><path fill="none" stroke="#232f61" stroke-linecap="round" stroke-miterlimit="50" stroke-width="4.06" d="M265.377 400.876c-12.096-16.427-19.267-36.616-19.267-58.336a98.79 98.79 0 0 1 6.031-33.98"/></g><g opacity=".5"><path fill="none" stroke="#232f61" stroke-linecap="round" stroke-miterlimit="50" stroke-width="4.06" d="M440.079 308.56a98.79 98.79 0 0 1 6.031 33.98c0 22.669-7.811 43.669-20.88 60.467"/></g><g><path fill="#ea4740" d="M344.696 385.781c-3.33-5.678-5.018-12.473-5.018-20.2v-1.34c-.94-12.476-8.742-19.344-21.98-19.344l-2.409.066a6.138 6.138 0 0 1-4.59-1.825 6.178 6.178 0 0 1-1.796-4.573l.176-4.9c.124-3.34 2.853-5.952 6.216-5.952h14.62c3.092 0 5.732-2.194 6.008-4.993a5.493 5.493 0 0 0-1.427-4.295 5.63 5.63 0 0 0-4.145-1.83h-26.13c-2.988 0-5.501 2.446-5.599 5.448l-1.134 33.047c-.097 1.702.392 3.157 1.37 4.186 1.027 1.077 2.526 1.671 4.226 1.671 1.495 0 2.385-.662 3.957-1.934a32.151 32.151 0 0 1 1.646-1.26c1.951-1.385 4.286-2.67 8.08-2.67 2.603 0 11.094.956 11.094 13.277 0 8.697-4.649 13.686-12.754 13.686-3.957 0-7.967-1.264-10.729-3.386l-.238-.166c-1.045-.64-2.16-.978-3.235-.978-2.973 0-5.39 2.538-5.39 5.66 0 1.977 1.005 3.712 2.825 4.887 4.541 3.07 9.845 4.478 16.767 4.478 6.967 0 12.663-1.92 16.93-5.706a4.17 4.17 0 0 1 5.856.325 4.098 4.098 0 0 1-.328 5.814c-5.752 5.101-13.517 7.8-22.458 7.8-8.666 0-15.456-1.863-21.36-5.858-4.122-2.652-6.527-6.95-6.527-11.74 0-7.66 6.14-13.892 13.685-13.892 2.681 0 5.369.799 7.768 2.315l.67.468c1.187.911 3.354 1.747 5.764 1.747 2.193 0 4.46 0 4.46-5.454 0-5.046-1.617-5.046-2.8-5.046-1.416 0-2.058.286-3.265 1.142-.473.334-.865.65-1.215.935-1.87 1.512-4.688 3.788-9.203 3.788-4.001 0-7.645-1.508-10.255-4.25-2.563-2.695-3.849-6.322-3.627-10.213l1.13-32.946c.24-7.388 6.472-13.406 13.889-13.406h26.13a13.98 13.98 0 0 1 10.289 4.53 13.773 13.773 0 0 1 3.535 10.625c-.684 6.966-6.948 12.426-14.26 12.426h-12.619l-.025.73.316-.008c17.857 0 29.168 10.144 30.375 27.135l.01.288v1.492c0 6.252 1.31 11.654 3.892 16.058 4.124 7.028 11.396 10.901 20.476 10.901 15.029 0 24.364-10.33 24.364-26.96v-22.95c0-16.628-9.335-26.96-24.364-26.96-6.055 0-11.189 1.637-15.263 4.86a4.17 4.17 0 0 1-5.829-.65 4.097 4.097 0 0 1 .657-5.786c5.501-4.354 12.568-6.655 20.435-6.655 19.535 0 32.658 14.142 32.658 35.191v22.95c0 21.048-13.123 35.192-32.658 35.192-12.153 0-21.971-5.324-27.644-14.992zm15.857-18.894v-23.336c0-14.948 9.36-16.109 12.23-16.109 2.867 0 12.225 1.16 12.225 16.109v23.336c0 14.54-8.55 16.107-12.225 16.107-3.678 0-12.23-1.568-12.23-16.107zm6.667-24.735v23.911c0 8.04 2.894 8.04 4.447 8.04 1.55 0 4.442 0 4.442-8.04v-23.911c0-8.042-3.114-8.042-4.442-8.042-1.331 0-4.447 0-4.447 8.042z"/></g><g><path fill="#ea4740" d="M388.466 423.001c0-1.955-1.556-3.511-3.467-3.511h-19.111a3.49 3.49 0 0 0-3.511 3.511c0 1.911 1.555 3.422 3.51 3.422h5.956v22.311c0 1.956 1.645 3.556 3.6 3.556 1.956 0 3.6-1.6 3.6-3.556v-22.31H385c1.911 0 3.467-1.512 3.467-3.423zm-31.556 22.045h-10.133V439h8.622c1.822 0 3.333-1.467 3.333-3.289s-1.51-3.333-3.333-3.333h-8.622v-6.045h9.555a3.396 3.396 0 0 0 3.422-3.422 3.424 3.424 0 0 0-3.422-3.422H343a3.424 3.424 0 0 0-3.422 3.422v25.556a3.396 3.396 0 0 0 3.422 3.422h13.911c1.867 0 3.378-1.511 3.378-3.422 0-1.867-1.511-3.422-3.378-3.422zm-48.089-2.8c-.933 3.155-3.111 4.31-3.111 6.577 0 1.956 1.644 3.511 3.556 3.511 2.088 0 3.644-1.555 4.755-3.777 2.133-4.267 2.8-11.467 2.8-15.378v-6.845h8.933v22.356c0 2.044 1.423 3.6 3.6 3.6 2.178 0 3.556-1.556 3.556-3.6v-25.778a3.386 3.386 0 0 0-3.422-3.378h-16.445c-1.91 0-3.466 1.556-3.466 3.378v10.267c0 4.578-.267 6.978-.756 9.067z"/></g></g></g></svg>